PathFileType	4	(X/Y/Z)	C:/Users/beibeiliu/ov580/test_trc/User2\sequence.15_training_dense_left.trc
DataRate	CameraRate	NumFrames	NumMarkers	Units	OrigDataRate	OrigDataStartFrame	OrigNumFrames
120	120	13	19	mm	120	1	87
Frame#	Time	ThumbCMC			ThumbMCP			ThumbIP			ThumbTip			IndexMCP			IndexPIP			IndexTip			MiddleMCP			MiddlePIP			MiddleTip			RingMCP			RingPIP			RingTip			PinkyMCP			PinkyPIP			PinkyTip			BackHand1			BackHand2			BackHand3	
		X0	Y0	Z0	X1	Y1	Z1	X2	Y2	Z2	X3	Y3	Z3	X4	Y4	Z4	X5	Y5	Z5	X6	Y6	Z6	X7	Y7	Z7	X8	Y8	Z8	X9	Y9	Z9	X10	Y10	Z10	X11	Y11	Z11	X12	Y12	Z12	X13	Y13	Z13	X14	Y14	Z14	X15	Y15	Z15	X16	Y16	Z16	X17	Y17	Z17	X18	Y18	Z18	
0	0	-70.5072	-51.2125	-40.2161	-50.6999	-50.9203	-61.4304	-26.5585	-46.4106	-86.8558	-10.3542	-46.7009	-108.472	-86.0358	-26.8413	-119.777	-77.8291	-21.8779	-145.531	-72.2068	-14.7242	-177.493	-111.592	-22.2897	-127.583	-112.633	-15.5227	-158.867	-115.081	-11.565	-190.896	-137.206	-28.6696	-123.833	-142.628	-23.9304	-146.36	-147.245	-20.7068	-175.789	-162.657	-44.1093	-106.102	-171.289	-40.3042	-126.042	-178.398	-28.8402	-148.594	-135.758	-31.9988	-69.9756	-136.338	-31.8097	-32.0841	-101.75	-28.0297	-52.8681	
1	0.00833333	-71.4607	-50.3726	-42.8691	-49.5884	-48.7627	-62.583	-30.7819	-47.0072	-88.4574	-10.2784	-47.0472	-108.485	-86.2142	-24.9647	-121.44	-78.9875	-18.5318	-149.553	-74.134	-13.1665	-178.658	-110.571	-20.366	-130.077	-111.418	-14.8835	-156.378	-114.851	-9.83514	-190.752	-141.26	-28.0762	-121.437	-141.478	-23.2835	-146.864	-147.09	-17.4221	-180.193	-158.964	-44.9977	-103.247	-173.113	-37.158	-129.875	-180.456	-27.7582	-145.629	-137.73	-32.809	-66.4175	-135.1	-29.4197	-34.7316	-100.652	-27.4912	-54.8162	
2	0.0166667	-71.6326	-50.8437	-41.462	-51.5403	-50.0609	-60.7781	-26.807	-45.5988	-90.8637	-12.8031	-48.6077	-105.246	-81.1545	-23.9227	-124.458	-79.7943	-19.2714	-147.855	-71.1307	-13.4255	-174.199	-113.501	-20.5018	-127.042	-112.04	-14.5008	-157.616	-112.094	-8.77575	-188.459	-136.397	-28.1455	-120.039	-142.823	-22.2624	-151.135	-148.395	-17.4115	-178.821	-160.985	-43.2168	-103.7	-172.804	-38.2452	-128.028	-179.452	-29.2189	-147.476	-138.741	-31.6492	-66.8257	-134.62	-30.6292	-35.1568	-102.49	-27.6395	-52.1557	
3	0.025	-68.7314	-48.6957	-45.7902	-51.7383	-49.3699	-63.8156	-28.5254	-46.7308	-89.3147	-11.9753	-49.3053	-103.978	-84.425	-23.9937	-124.412	-75.5286	-17.5307	-150.363	-76.8563	-13.9895	-174.22	-111.784	-20.8116	-125.694	-112.912	-13.5719	-159.622	-115.467	-8.49291	-189.326	-136.9	-27.0631	-122.619	-144.101	-22.345	-149.657	-146.086	-17.9042	-174.168	-156.876	-44.0288	-103.688	-168.934	-36.6305	-128.198	-180.07	-26.8803	-145.729	-137.378	-32.1941	-69.7168	-138.658	-30.5163	-35.9828	-101.349	-26.8221	-55.0841	
4	0.0333333	-73.0236	-50.6025	-42.3695	-50.2718	-48.0202	-64.9538	-26.1659	-46.0987	-87.369	-9.50496	-47.6212	-105.189	-82.1614	-22.7486	-120.13	-77.7518	-17.178	-145.304	-72.167	-11.8568	-172.749	-109.613	-16.0772	-129.8	-110.414	-11.9644	-161.739	-113.292	-8.96406	-188.795	-141.572	-26.8149	-121.205	-142.94	-20.3065	-151.24	-148.07	-19.0699	-179.914	-163.086	-41.9715	-104.392	-167.883	-35.9966	-127.431	-180.726	-25.3739	-146.342	-138.298	-29.6277	-68.0679	-133.068	-28.962	-36.6161	-102.14	-27.1668	-54.4852	
5	0.0416667	-73.2814	-49.5144	-45.0925	-52.6166	-47.9973	-63.3233	-29.6909	-43.8329	-90.2585	-10.376	-45.5653	-105.34	-81.986	-21.3472	-117.069	-80.5316	-13.983	-147.836	-73.3945	-9.66327	-171.42	-114.363	-15.2792	-127.332	-112.094	-11.6324	-159.254	-116.831	-19.2151	-192.224	-142.109	-24.8857	-120.034	-145.305	-21.4412	-151.625	-146.799	-27.2721	-179.071	-161.117	-39.1109	-102.91	-168.229	-34.2796	-124.813	-181.227	-26.1521	-147.197	-135.414	-29.7252	-63.2149	-136.13	-30.5144	-33.0862	-99.4759	-27.0101	-51.3039	
6	0.05	-72.1172	-44.9793	-41.8808	-51.9651	-42.8351	-61.7075	-32.864	-41.2954	-84.8975	-15.2478	-39.4024	-102.914	-86.3809	-14.1081	-119.1	-78.8802	-9.191	-140.345	-77.51	-2.66129	-168.646	-116.164	-12.5076	-126.598	-112.757	-16.2163	-158.348	-113.074	-46.0084	-186.3	-136.52	-21.9472	-117.146	-140.963	-24.4948	-150.25	-134.069	-48.6408	-177.687	-163.045	-35.8377	-100.865	-171.652	-28.2387	-128.47	-179.383	-23.1835	-150.373	-135.241	-28.5835	-61.2136	-139.173	-28.2994	-29.3307	-104.16	-22.064	-46.7564	
7	0.0583333	-73.7713	-40.9436	-34.6754	-54.6948	-38.5597	-56.8622	-31.1379	-29.8195	-83.9945	-13.9908	-29.6744	-99.0872	-87.9934	-7.42472	-114.375	-81.7224	-0.245321	-141.789	-83.4695	5.44311	-165.568	-115.146	-14.8923	-127.539	-112.637	-32.3335	-156.646	-103.096	-74.1421	-152.942	-135.722	-22.5299	-120.163	-138.148	-38.3492	-150.287	-125.887	-70.5535	-153.39	-162.372	-31.5346	-102.265	-167.295	-27.5048	-126.519	-173.474	-24.9698	-156.614	-142.239	-25.5801	-59.6246	-141.343	-25.7178	-29.6141	-103.561	-16.3789	-44.7288	
8	0.0666667	-74.1865	-38.2897	-38.2205	-55.5493	-34.5148	-60.131	-35.0599	-27.7932	-83.6311	-16.1539	-23.1955	-103.806	-89.3464	-3.42953	-112.095	-86.2046	5.81161	-142.22	-82.6481	12.9985	-169.342	-113.28	-18.5253	-126.785	-110.86	-50.3908	-149.985	-102.2	-77.7785	-123.921	-135.948	-26.1519	-125.816	-132.293	-49.9765	-147.293	-115.428	-78.5823	-128.522	-160.83	-31.4128	-101.225	-164.834	-25.9233	-128.729	-170.197	-24.262	-157.903	-139.733	-22.5032	-62.1604	-142.47	-25.9124	-27.6172	-105.667	-16.6005	-44.2292	
9	0.075	-77.391	-37.9478	-37.6993	-52.0679	-32.2058	-58.856	-31.2516	-25.7599	-81.4173	-20.8492	-25.2264	-104.869	-89.084	-0.453085	-114.314	-90.019	6.3344	-138.85	-88.6234	14.6269	-167.444	-110.738	-21.4934	-130.484	-104.769	-54.2087	-144.632	-100.589	-73.006	-110.169	-131.014	-28.0647	-129.696	-129.676	-55.7791	-144.743	-115.365	-76.4818	-115.964	-156.246	-28.8566	-104.336	-165.485	-24.1161	-134.575	-167.187	-22.2845	-159.942	-143.429	-20.3682	-63.4855	-143.582	-23.0273	-33.136	-105.983	-14.7393	-44.1495	
10	0.0833333	-77.7649	-33.1604	-38.869	-55.5703	-30.4006	-59.1033	-36.6135	-25.5517	-87.6968	-29.5215	-24.3693	-115.297	-92.8395	3.59194	-114.967	-88.3841	11.5228	-139.257	-89.9688	19.5065	-169.043	-112.176	-19.3479	-131.969	-105.13	-50.439	-142.044	-104.42	-66.023	-104.764	-137.097	-27.9947	-128.873	-127.367	-54.6466	-142.884	-114.135	-71.3378	-109.678	-157.564	-25.4321	-106.829	-165.498	-19.9313	-135.804	-167.537	-18.3275	-161.118	-145.46	-17.4662	-64.2693	-145.68	-21.6635	-35.4145	-110.938	-10.9228	-45.1241	
11	0.0916667	-83.1847	-34.1235	-38.0979	-54.8949	-33.0985	-61.8903	-44.0358	-33.0743	-95.8103	-55.1015	-36.9428	-122.87	-92.374	10.4841	-112.398	-88.7617	20.2965	-138.382	-89.44	27.0843	-162.367	-112.95	-11.7587	-128.62	-106.711	-45.4054	-142.631	-102.948	-59.2101	-102.866	-136.291	-21.2684	-127.256	-124.338	-46.251	-143.553	-116.664	-66.8325	-113.942	-157.967	-18.2965	-112.582	-163.04	-16.5122	-135.165	-169.559	-12.79	-163.471	-147.544	-11.5809	-66.1344	-151.387	-18.2755	-34.0738	-110.305	-8.13963	-46.2468	
12	0.1	-83.8934	-32.2182	-43.427	-63.5398	-41.7729	-68.9352	-56.0632	-48.1667	-105.268	-75.5894	-50.9761	-129.913	-90.318	14.6912	-110.397	-84.2537	25.8488	-133.405	-83.8432	33.8618	-157.144	-108.632	-8.07543	-129.973	-102.719	-41.2342	-143.646	-102.581	-58.6131	-109.502	-135.455	-18.8389	-129.839	-119.04	-44.6535	-144.094	-113.736	-63.6772	-114.422	-159.443	-21.4556	-110.781	-161.959	-17.0299	-136.138	-164.837	-9.19197	-164.589	-143.217	-11.7077	-68.4882	-150.282	-18.3955	-33.1191	-113.885	-7.72333	-44.4734	
